<svg width="32" height="34" viewBox="0 0 32 34" fill="none" xmlns="http://www.w3.org/2000/svg">
<path d="M16.0929 0.982941C21.7891 0.982941 27.424 6.17139 27.424 12.2432C27.424 18.3151 29 26.4375 29 26.4375H3C3 26.4375 4.76171 18.118 4.76171 12.2432C4.76171 6.36843 10.3967 0.982941 16.0929 0.982941Z" fill="white"/>
<path d="M19.6111 29.3466C19.6111 31.3043 17.8276 32.9829 16 32.9829C14.1724 32.9829 12.3889 31.3043 12.3889 29.3466M16.0929 0.982941C21.7891 0.982941 27.424 6.17139 27.424 12.2432C27.424 18.3151 29 26.4375 29 26.4375H3C3 26.4375 4.76171 18.118 4.76171 12.2432C4.76171 6.36843 10.3967 0.982941 16.0929 0.982941Z" stroke="white" stroke-width="1.5" stroke-linecap="round" stroke-linejoin="round"/>
</svg>
