<svg width="20" height="20" viewBox="0 0 20 20" fill="none" xmlns="http://www.w3.org/2000/svg">
<path d="M4.61666 16.2668C4.10832 16.2668 3.63332 16.0918 3.29166 15.7668C2.85832 15.3584 2.64999 14.7417 2.72499 14.0751L3.03332 11.3751C3.09166 10.8667 3.39999 10.1917 3.75832 9.82508L10.6 2.58342C12.3083 0.775081 14.0917 0.725082 15.9 2.43342C17.7083 4.14175 17.7583 5.92508 16.05 7.73342L9.20832 14.9751C8.85832 15.3501 8.20832 15.7001 7.69999 15.7834L5.01666 16.2418C4.87499 16.2501 4.74999 16.2668 4.61666 16.2668ZM13.275 2.42508C12.6333 2.42508 12.075 2.82508 11.5083 3.42508L4.66666 10.6751C4.49999 10.8501 4.30832 11.2668 4.27499 11.5084L3.96666 14.2084C3.93332 14.4834 3.99999 14.7084 4.14999 14.8501C4.29999 14.9917 4.52499 15.0417 4.79999 15.0001L7.48332 14.5418C7.72499 14.5001 8.12499 14.2834 8.29166 14.1084L15.1333 6.86675C16.1667 5.76675 16.5417 4.75008 15.0333 3.33342C14.3667 2.69175 13.7917 2.42508 13.275 2.42508Z" fill="#0089F1"/>
<path d="M14.45 9.12516C14.4333 9.12516 14.4083 9.12516 14.3916 9.12516C11.7916 8.86683 9.69996 6.89183 9.29996 4.30849C9.24996 3.96683 9.48329 3.65016 9.82496 3.59183C10.1666 3.54183 10.4833 3.77516 10.5416 4.11683C10.8583 6.13349 12.4916 7.68349 14.525 7.88349C14.8666 7.91683 15.1166 8.22516 15.0833 8.56683C15.0416 8.88349 14.7666 9.12516 14.45 9.12516Z" fill="#0089F1"/>
<path d="M17.5 18.9585H2.5C2.15833 18.9585 1.875 18.6752 1.875 18.3335C1.875 17.9918 2.15833 17.7085 2.5 17.7085H17.5C17.8417 17.7085 18.125 17.9918 18.125 18.3335C18.125 18.6752 17.8417 18.9585 17.5 18.9585Z" fill="#0089F1"/>
</svg>
