<svg width="20" height="21" viewBox="0 0 20 21" fill="none" xmlns="http://www.w3.org/2000/svg">
<path d="M12.9833 10.5228C12.9833 12.1728 11.6499 13.5061 9.99993 13.5061C8.34993 13.5061 7.0166 12.1728 7.0166 10.5228C7.0166 8.87276 8.34993 7.53943 9.99993 7.53943C11.6499 7.53943 12.9833 8.87276 12.9833 10.5228Z" stroke="#374151" stroke-width="1.5" stroke-linecap="round" stroke-linejoin="round"/>
<path d="M10.0001 17.4143C12.9418 17.4143 15.6834 15.681 17.5918 12.681C18.3418 11.506 18.3418 9.53101 17.5918 8.35601C15.6834 5.35601 12.9418 3.62268 10.0001 3.62268C7.05845 3.62268 4.31678 5.35601 2.40845 8.35601C1.65845 9.53101 1.65845 11.506 2.40845 12.681C4.31678 15.681 7.05845 17.4143 10.0001 17.4143Z" stroke="#374151" stroke-width="1.5" stroke-linecap="round" stroke-linejoin="round"/>
</svg>
