<svg width="33" height="33" viewBox="0 0 33 33" fill="none" xmlns="http://www.w3.org/2000/svg">
<path d="M16.9829 10.3187V28.9787" stroke="white" stroke-width="2" stroke-linecap="round" stroke-linejoin="round"/>
<path d="M4.98716 24.9801C4.63366 24.9801 4.29464 24.8397 4.04468 24.5897C3.79472 24.3398 3.6543 24.0007 3.6543 23.6473V6.32007C3.6543 5.96658 3.79472 5.62756 4.04468 5.3776C4.29464 5.12764 4.63366 4.98721 4.98716 4.98721H11.6515C13.0654 4.98721 14.4215 5.54892 15.4214 6.54876C16.4212 7.54859 16.9829 8.90467 16.9829 10.3187C16.9829 8.90467 17.5446 7.54859 18.5444 6.54876C19.5443 5.54892 20.9003 4.98721 22.3143 4.98721H28.9786C29.3321 4.98721 29.6711 5.12764 29.9211 5.3776C30.1711 5.62756 30.3115 5.96658 30.3115 6.32007V23.6473C30.3115 24.0007 30.1711 24.3398 29.9211 24.5897C29.6711 24.8397 29.3321 24.9801 28.9786 24.9801H20.9815C19.921 24.9801 18.9039 25.4014 18.1541 26.1513C17.4042 26.9011 16.9829 27.9182 16.9829 28.9787C16.9829 27.9182 16.5616 26.9011 15.8117 26.1513C15.0619 25.4014 14.0448 24.9801 12.9843 24.9801H4.98716Z" stroke="white" stroke-width="2" stroke-linecap="round" stroke-linejoin="round"/>
</svg>
