<svg width="24" height="25" viewBox="0 0 24 25" fill="none" xmlns="http://www.w3.org/2000/svg">
<path d="M15.24 23.253H15.11C10.67 23.253 8.53002 21.503 8.16002 17.583C8.12002 17.173 8.42002 16.803 8.84002 16.763C9.24002 16.723 9.62002 17.033 9.66002 17.443C9.95002 20.583 11.43 21.753 15.12 21.753H15.25C19.32 21.753 20.76 20.313 20.76 16.243V9.72295C20.76 5.65295 19.32 4.21295 15.25 4.21295H15.12C11.41 4.21295 9.93002 5.40295 9.66002 8.60295C9.61002 9.01295 9.26002 9.32295 8.84002 9.28295C8.42002 9.25295 8.12001 8.88295 8.15001 8.47295C8.49001 4.49295 10.64 2.71295 15.11 2.71295H15.24C20.15 2.71295 22.25 4.81295 22.25 9.72295V16.243C22.25 21.153 20.15 23.253 15.24 23.253Z" fill="#FF5969"/>
<path d="M15 13.7329H3.62C3.21 13.7329 2.87 13.3929 2.87 12.9829C2.87 12.5729 3.21 12.2329 3.62 12.2329H15C15.41 12.2329 15.75 12.5729 15.75 12.9829C15.75 13.3929 15.41 13.7329 15 13.7329Z" fill="#FF5969"/>
<path d="M5.84994 17.0829C5.65994 17.0829 5.46994 17.0129 5.31994 16.8629L1.96994 13.5129C1.67994 13.2229 1.67994 12.7429 1.96994 12.4529L5.31994 9.10294C5.60994 8.81294 6.08994 8.81294 6.37994 9.10294C6.66994 9.39294 6.66994 9.87294 6.37994 10.1629L3.55994 12.9829L6.37994 15.8029C6.66994 16.0929 6.66994 16.5729 6.37994 16.8629C6.23994 17.0129 6.03994 17.0829 5.84994 17.0829Z" fill="#FF5969"/>
</svg>
