<svg width="33" height="32" viewBox="0 0 33 32" fill="none" xmlns="http://www.w3.org/2000/svg">
<path d="M10.1389 24.7158H16.8048C16.8609 24.7151 16.9164 24.7045 16.9686 24.6844C17.0208 24.6638 17.0688 24.6339 17.1104 24.5961L22.7529 19.2621C22.7971 19.2214 22.8325 19.172 22.8568 19.1171C22.8791 19.0653 22.8919 19.0098 22.8947 18.9534V14.1483C22.8947 13.8873 22.6831 13.6759 22.4223 13.6759C22.1614 13.6759 21.95 13.8873 21.95 14.1483V18.4462H19.0467C18.3268 18.4478 17.637 18.7347 17.1282 19.2442C16.6194 19.7535 16.3333 20.4437 16.3325 21.1636V23.7708H10.1389C9.66946 23.7708 9.21933 23.5845 8.88755 23.2525C8.5556 22.9207 8.36908 22.4706 8.36908 22.0012V11.9535C8.36908 11.484 8.55541 11.0335 8.8872 10.7012C9.21899 10.3687 9.66912 10.1816 10.1389 10.1808H17.9921C18.2529 10.1808 18.4643 9.96933 18.4643 9.70851C18.4643 9.44754 18.2529 9.23608 17.9921 9.23608H10.1389C9.41895 9.23775 8.72895 9.52482 8.22031 10.0341C7.7115 10.5434 7.42525 11.2336 7.42444 11.9535V22.0011C7.42527 22.7207 7.71151 23.4107 8.22048 23.9195C8.72929 24.4283 9.41912 24.7146 10.1389 24.7154L10.1389 24.7158ZM19.047 19.3911H21.2511L17.2773 23.1478V21.1639C17.2773 20.6943 17.4637 20.2438 17.7955 19.9115C18.1273 19.5791 18.5774 19.3919 19.047 19.3911Z" fill="black"/>
<path d="M21.7708 8.14676C21.6456 8.14759 21.526 8.19729 21.437 8.28522L14.2672 15.455C14.2162 15.5077 14.1775 15.5712 14.1539 15.6408L13.3068 18.2417C13.2536 18.4105 13.2985 18.595 13.4233 18.7203C13.5488 18.8453 13.7332 18.8902 13.9021 18.8368L16.5029 17.9866V17.9868C16.5724 17.9632 16.6359 17.9244 16.6886 17.8734L23.8554 10.7036C24.0379 10.5184 24.0379 10.2212 23.8554 10.036L22.1047 8.28519C22.0161 8.1966 21.8961 8.14689 21.771 8.14673L21.7708 8.14676ZM16.1027 17.1238L14.4968 17.6497L15.0228 16.0438L21.7704 9.28637L22.8535 10.3695L16.1027 17.1238Z" fill="black"/>
</svg>
