<svg width="20" height="21" viewBox="0 0 20 21" fill="none" xmlns="http://www.w3.org/2000/svg">
<path d="M10 5.89575V17.5624" stroke="white" stroke-width="2" stroke-linecap="round" stroke-linejoin="round"/>
<path d="M2.49984 15.0625C2.27882 15.0625 2.06686 14.9747 1.91058 14.8184C1.7543 14.6621 1.6665 14.4502 1.6665 14.2292V3.39583C1.6665 3.17482 1.7543 2.96286 1.91058 2.80658C2.06686 2.6503 2.27882 2.5625 2.49984 2.5625H6.6665C7.55056 2.5625 8.39841 2.91369 9.02353 3.53881C9.64865 4.16393 9.99984 5.01178 9.99984 5.89583C9.99984 5.01178 10.351 4.16393 10.9761 3.53881C11.6013 2.91369 12.4491 2.5625 13.3332 2.5625H17.4998C17.7209 2.5625 17.9328 2.6503 18.0891 2.80658C18.2454 2.96286 18.3332 3.17482 18.3332 3.39583V14.2292C18.3332 14.4502 18.2454 14.6621 18.0891 14.8184C17.9328 14.9747 17.7209 15.0625 17.4998 15.0625H12.4998C11.8368 15.0625 11.2009 15.3259 10.7321 15.7947C10.2632 16.2636 9.99984 16.8995 9.99984 17.5625C9.99984 16.8995 9.73645 16.2636 9.2676 15.7947C8.79876 15.3259 8.16288 15.0625 7.49984 15.0625H2.49984Z" stroke="white" stroke-width="2" stroke-linecap="round" stroke-linejoin="round"/>
</svg>
