<svg width="56" height="56" viewBox="0 0 56 56" fill="none" xmlns="http://www.w3.org/2000/svg">
<path d="M0 27.983C0 12.5284 12.5284 0 27.983 0V0C43.4375 0 55.9659 12.5284 55.9659 27.983V27.983C55.9659 43.4375 43.4375 55.9659 27.983 55.9659V55.9659C12.5284 55.9659 0 43.4375 0 27.983V27.983Z" fill="#EF4444"/>
<path d="M27.9829 21.3187V39.9787" stroke="white" stroke-width="2" stroke-linecap="round" stroke-linejoin="round"/>
<path d="M15.9872 35.9801C15.6337 35.9801 15.2946 35.8397 15.0447 35.5897C14.7947 35.3398 14.6543 35.0007 14.6543 34.6473V17.3201C14.6543 16.9666 14.7947 16.6276 15.0447 16.3776C15.2946 16.1276 15.6337 15.9872 15.9872 15.9872H22.6515C24.0654 15.9872 25.4215 16.5489 26.4214 17.5488C27.4212 18.5486 27.9829 19.9047 27.9829 21.3187C27.9829 19.9047 28.5446 18.5486 29.5444 17.5488C30.5443 16.5489 31.9003 15.9872 33.3143 15.9872H39.9786C40.3321 15.9872 40.6711 16.1276 40.9211 16.3776C41.1711 16.6276 41.3115 16.9666 41.3115 17.3201V34.6473C41.3115 35.0007 41.1711 35.3398 40.9211 35.5897C40.6711 35.8397 40.3321 35.9801 39.9786 35.9801H31.9815C30.921 35.9801 29.9039 36.4014 29.1541 37.1513C28.4042 37.9011 27.9829 38.9182 27.9829 39.9787C27.9829 38.9182 27.5616 37.9011 26.8117 37.1513C26.0619 36.4014 25.0448 35.9801 23.9843 35.9801H15.9872Z" stroke="white" stroke-width="2" stroke-linecap="round" stroke-linejoin="round"/>
</svg>
